<?xml version="1.0" encoding="UTF-8" standalone="no"?>
<svg xmlns:ffdec="https://www.free-decompiler.com/flash" xmlns:xlink="http://www.w3.org/1999/xlink" ffdec:objectType="frame" height="25.0px" width="25.0px" xmlns="http://www.w3.org/2000/svg">
  <g transform="matrix(1.0, 0.0, 0.0, 1.0, 0.0, 0.0)">
    <use ffdec:characterId="177" height="25.0" transform="matrix(1.0, 0.0, 0.0, 1.0, 0.0, 0.0)" width="25.0" xlink:href="#shape0"/>
  </g>
  <defs>
    <g id="shape0" transform="matrix(1.0, 0.0, 0.0, 1.0, 0.0, 0.0)">
      <path d="M22.2 0.0 Q25.0 0.0 25.0 3.2 L25.0 21.8 Q25.0 25.0 22.2 25.0 L2.85 25.0 Q0.0 25.0 0.0 21.8 L0.0 3.2 Q0.0 0.0 2.85 0.0 L22.2 0.0" fill="url(#gradient0)" fill-rule="evenodd" stroke="none"/>
      <path d="M21.4 1.0 Q24.0 1.0 24.0 3.95 L24.0 21.05 Q24.0 24.0 21.4 24.0 L3.6 24.0 Q1.0 24.0 1.0 21.05 L1.0 3.95 Q1.0 1.0 3.6 1.0 L21.4 1.0" fill="#1c231c" fill-rule="evenodd" stroke="none"/>
      <path d="M20.65 2.0 Q23.0 2.0 23.0 4.7 L23.0 20.35 Q23.0 23.0 20.65 23.0 L4.35 23.0 Q2.0 23.0 2.0 20.35 L2.0 4.7 Q2.0 2.0 4.35 2.0 L20.65 2.0" fill="#409b91" fill-rule="evenodd" stroke="none"/>
      <path d="M19.85 3.0 Q22.0 3.0 22.0 5.4 L22.0 19.55 Q22.0 22.0 19.85 22.0 L5.15 22.0 Q3.0 22.0 3.0 19.55 L3.0 5.4 Q3.0 3.0 5.15 3.0 L19.85 3.0" fill="url(#gradient1)" fill-rule="evenodd" stroke="none"/>
      <path d="M12.55 2.0 Q16.5 2.0 19.3 4.95 22.05 7.85 22.05 12.0 22.05 16.15 19.3 19.1 16.5 22.05 12.55 22.05 8.65 22.05 5.85 19.1 3.05 16.15 3.05 12.0 3.05 7.85 5.85 4.95 8.65 2.0 12.55 2.0" fill="url(#gradient2)" fill-rule="evenodd" stroke="none"/>
    </g>
    <linearGradient gradientTransform="matrix(0.0, -0.0154, 0.0135, 0.0, 12.45, 12.5)" gradientUnits="userSpaceOnUse" id="gradient0" spreadMethod="pad" x1="-819.2" x2="819.2">
      <stop offset="0.0" stop-color="#8b6542"/>
      <stop offset="1.0" stop-color="#e2b36e"/>
    </linearGradient>
    <linearGradient gradientTransform="matrix(0.0, -0.0114, 0.0102, 0.0, 12.5, 12.4)" gradientUnits="userSpaceOnUse" id="gradient1" spreadMethod="pad" x1="-819.2" x2="819.2">
      <stop offset="0.0" stop-color="#4b3c27" stop-opacity="0.3529412"/>
      <stop offset="0.8549019607843137" stop-color="#4b3c27" stop-opacity="0.7529412"/>
      <stop offset="1.0" stop-color="#4b3c27" stop-opacity="0.8"/>
    </linearGradient>
    <radialGradient cx="0" cy="0" gradientTransform="matrix(0.0114, 0.0, 0.0, 0.012, 12.55, 12.0)" gradientUnits="userSpaceOnUse" id="gradient2" r="819.2" spreadMethod="pad">
      <stop offset="0.0" stop-color="#9900cc" stop-opacity="0.8509804"/>
      <stop offset="1.0" stop-color="#9900cc" stop-opacity="0.0"/>
    </radialGradient>
  </defs>
</svg>
